<mxfile host="app.diagrams.net" modified="2024-02-01T01:21:16.300Z" agent="Mozilla/5.0 (Windows NT 10.0; Win64; x64) AppleWebKit/537.36 (KHTML, like Gecko) Chrome/120.0.0.0 Safari/537.36" etag="gZAS0-rdfAJnd5Df_zTW" version="23.1.0" type="github">
  <diagram name="Page-1" id="oXxkOIt78vjTuQI7BejQ">
    <mxGraphModel dx="1114" dy="600" grid="1" gridSize="10" guides="1" tooltips="1" connect="1" arrows="1" fold="1" page="1" pageScale="1" pageWidth="850" pageHeight="1100" math="0" shadow="0">
      <root>
        <mxCell id="0" />
        <mxCell id="1" parent="0" />
        <mxCell id="caSLUMRjXra7VOvIVVeD-3" value="" style="rounded=0;whiteSpace=wrap;html=1;direction=south;" vertex="1" parent="1">
          <mxGeometry x="305" y="30" width="240" height="470" as="geometry" />
        </mxCell>
        <mxCell id="caSLUMRjXra7VOvIVVeD-4" value="Perpus Digital" style="text;html=1;strokeColor=none;fillColor=none;align=center;verticalAlign=middle;whiteSpace=wrap;rounded=0;" vertex="1" parent="1">
          <mxGeometry x="380" y="50" width="85" height="30" as="geometry" />
        </mxCell>
        <mxCell id="caSLUMRjXra7VOvIVVeD-5" value="Form Pengunjung" style="ellipse;whiteSpace=wrap;html=1;" vertex="1" parent="1">
          <mxGeometry x="346" y="100" width="157.5" height="80" as="geometry" />
        </mxCell>
        <mxCell id="caSLUMRjXra7VOvIVVeD-6" value="Pencarian Buku" style="ellipse;whiteSpace=wrap;html=1;" vertex="1" parent="1">
          <mxGeometry x="343.75" y="200" width="157.5" height="80" as="geometry" />
        </mxCell>
        <mxCell id="caSLUMRjXra7VOvIVVeD-7" value="Masukan Judul Buku" style="ellipse;whiteSpace=wrap;html=1;" vertex="1" parent="1">
          <mxGeometry x="346" y="300" width="157.5" height="80" as="geometry" />
        </mxCell>
        <mxCell id="caSLUMRjXra7VOvIVVeD-8" value="Lihat Rincian Buku" style="ellipse;whiteSpace=wrap;html=1;" vertex="1" parent="1">
          <mxGeometry x="346" y="400" width="157.5" height="80" as="geometry" />
        </mxCell>
        <mxCell id="caSLUMRjXra7VOvIVVeD-9" value="Pustakawan" style="shape=umlActor;verticalLabelPosition=bottom;verticalAlign=top;html=1;outlineConnect=0;" vertex="1" parent="1">
          <mxGeometry x="670" y="240" width="60" height="100" as="geometry" />
        </mxCell>
        <mxCell id="caSLUMRjXra7VOvIVVeD-12" value="Pengunjung" style="shape=umlActor;verticalLabelPosition=bottom;verticalAlign=top;html=1;outlineConnect=0;" vertex="1" parent="1">
          <mxGeometry x="110" y="230" width="60" height="100" as="geometry" />
        </mxCell>
        <mxCell id="caSLUMRjXra7VOvIVVeD-14" value="" style="endArrow=none;html=1;rounded=0;exitX=1;exitY=0.5;exitDx=0;exitDy=0;" edge="1" parent="1" source="caSLUMRjXra7VOvIVVeD-5">
          <mxGeometry width="50" height="50" relative="1" as="geometry">
            <mxPoint x="500" y="130" as="sourcePoint" />
            <mxPoint x="680" y="210" as="targetPoint" />
            <Array as="points">
              <mxPoint x="590" y="140" />
            </Array>
          </mxGeometry>
        </mxCell>
        <mxCell id="caSLUMRjXra7VOvIVVeD-16" value="" style="endArrow=none;html=1;rounded=0;entryX=0;entryY=0.5;entryDx=0;entryDy=0;" edge="1" parent="1" target="caSLUMRjXra7VOvIVVeD-5">
          <mxGeometry width="50" height="50" relative="1" as="geometry">
            <mxPoint x="160" y="210" as="sourcePoint" />
            <mxPoint x="250" y="120" as="targetPoint" />
            <Array as="points">
              <mxPoint x="250" y="140" />
            </Array>
          </mxGeometry>
        </mxCell>
        <mxCell id="caSLUMRjXra7VOvIVVeD-17" value="" style="endArrow=none;html=1;rounded=0;entryX=0.04;entryY=0.625;entryDx=0;entryDy=0;entryPerimeter=0;" edge="1" parent="1">
          <mxGeometry width="50" height="50" relative="1" as="geometry">
            <mxPoint x="200" y="250" as="sourcePoint" />
            <mxPoint x="343.74999999999994" y="230" as="targetPoint" />
          </mxGeometry>
        </mxCell>
        <mxCell id="caSLUMRjXra7VOvIVVeD-18" value="" style="endArrow=none;html=1;rounded=0;" edge="1" parent="1">
          <mxGeometry width="50" height="50" relative="1" as="geometry">
            <mxPoint x="501.25" y="230" as="sourcePoint" />
            <mxPoint x="650" y="250" as="targetPoint" />
          </mxGeometry>
        </mxCell>
        <mxCell id="caSLUMRjXra7VOvIVVeD-19" value="" style="endArrow=none;html=1;rounded=0;entryX=0;entryY=0.425;entryDx=0;entryDy=0;entryPerimeter=0;" edge="1" parent="1" target="caSLUMRjXra7VOvIVVeD-7">
          <mxGeometry width="50" height="50" relative="1" as="geometry">
            <mxPoint x="190" y="310" as="sourcePoint" />
            <mxPoint x="340" y="340" as="targetPoint" />
          </mxGeometry>
        </mxCell>
        <mxCell id="caSLUMRjXra7VOvIVVeD-20" value="" style="endArrow=none;html=1;rounded=0;entryX=0.025;entryY=0.5;entryDx=0;entryDy=0;entryPerimeter=0;" edge="1" parent="1" target="caSLUMRjXra7VOvIVVeD-8">
          <mxGeometry width="50" height="50" relative="1" as="geometry">
            <mxPoint x="180" y="360" as="sourcePoint" />
            <mxPoint x="340" y="440" as="targetPoint" />
          </mxGeometry>
        </mxCell>
        <mxCell id="caSLUMRjXra7VOvIVVeD-21" value="" style="endArrow=none;html=1;rounded=0;" edge="1" parent="1">
          <mxGeometry width="50" height="50" relative="1" as="geometry">
            <mxPoint x="503.5" y="440" as="sourcePoint" />
            <mxPoint x="660" y="310" as="targetPoint" />
          </mxGeometry>
        </mxCell>
      </root>
    </mxGraphModel>
  </diagram>
</mxfile>
